<?xml version="1.0" standalone="no"?>
<!DOCTYPE svg PUBLIC "-//W3C//DTD SVG 20010904//EN"
 "http://www.w3.org/TR/2001/REC-SVG-20010904/DTD/svg10.dtd">
<svg version="1.0" xmlns="http://www.w3.org/2000/svg"
 width="613.000000pt" height="613.000000pt" viewBox="0 0 613.000000 613.000000"
 preserveAspectRatio="xMidYMid meet">
<metadata>
Created by potrace 1.11, written by Peter Selinger 2001-2013
</metadata>
<g transform="translate(0.000000,613.000000) scale(0.100000,-0.100000)"
fill="#000000" stroke="none">
<path d="M0 6028 l1 -103 28 33 c15 17 32 32 38 32 5 0 15 11 21 24 6 13 20
27 31 31 12 3 21 11 21 17 0 7 15 24 33 39 l32 28 -102 1 -103 0 0 -102z"/>
<path d="M5932 6118 c3 -7 14 -18 27 -24 12 -6 42 -33 67 -60 25 -27 49 -48
55 -46 5 1 14 -9 19 -22 21 -56 30 -37 30 63 l0 101 -101 0 c-76 0 -100 -3
-97 -12z"/>
<path d="M1488 3910 c-206 -26 -370 -124 -446 -269 -57 -106 -52 -203 13 -260
45 -39 78 -40 117 -1 30 30 30 33 24 98 -10 98 11 158 77 225 122 125 326 167
479 99 135 -59 204 -225 179 -425 -44 -338 -315 -692 -588 -765 -260 -71 -420
45 -373 270 10 47 26 77 67 131 29 39 53 81 53 93 0 12 -12 36 -26 53 -61 73
-157 20 -230 -127 -37 -72 -39 -83 -39 -168 0 -84 2 -95 38 -166 45 -91 103
-148 186 -179 49 -19 70 -20 176 -16 184 8 306 48 465 153 96 63 231 198 294
294 64 96 123 225 147 319 23 89 25 242 5 319 -28 103 -107 208 -195 255 -101
55 -285 84 -423 67z"/>
<path d="M3896 3868 c-57 -52 -240 -436 -348 -733 -6 -16 -21 -40 -34 -51 -12
-12 -31 -39 -42 -61 -76 -148 -314 -394 -348 -360 -22 22 66 258 213 570 58
125 61 144 23 185 -23 24 -77 30 -111 12 -22 -12 -60 -84 -114 -220 -21 -52
-53 -111 -70 -130 -17 -19 -51 -69 -75 -110 -93 -162 -219 -320 -255 -320 -17
0 6 120 43 230 47 137 94 245 158 360 70 127 61 192 -29 207 -32 5 -41 1 -70
-28 -19 -19 -36 -41 -40 -49 -5 -13 -8 -12 -17 3 -22 35 -65 67 -98 73 -89 17
-217 -19 -290 -81 -72 -61 -164 -216 -213 -360 -33 -96 -33 -228 -1 -299 46
-100 111 -156 184 -156 59 0 142 56 194 131 15 22 30 39 33 39 3 0 14 -22 24
-50 21 -60 59 -106 91 -112 62 -12 145 44 228 152 l53 70 7 -59 c25 -219 183
-209 396 26 l72 78 0 -61 c0 -145 70 -231 162 -199 51 17 84 47 159 142 35 45
67 82 72 83 4 0 7 -11 7 -25 0 -58 56 -122 113 -132 52 -8 133 35 218 115 38
35 69 61 69 57 0 -28 -147 -409 -179 -464 -71 -121 -165 -178 -306 -187 -142
-9 -215 44 -215 157 0 52 -3 60 -31 83 -36 30 -49 32 -94 10 -40 -19 -55 -55
-55 -131 0 -107 80 -208 188 -239 133 -39 337 17 476 131 172 140 255 276 431
710 29 72 82 200 119 285 36 85 66 168 66 183 0 38 -49 87 -87 87 -47 0 -67
-23 -131 -152 -78 -157 -222 -376 -298 -452 -60 -60 -132 -102 -148 -86 -22
22 73 212 219 435 99 151 104 164 83 209 -22 46 -73 64 -117 42 -39 -21 -60
-48 -144 -191 -38 -66 -83 -130 -98 -143 -15 -12 -42 -48 -60 -80 -94 -165
-237 -352 -270 -352 -13 0 -11 60 6 132 41 177 161 463 347 830 95 188 98 199
55 246 -14 15 -32 22 -58 22 -25 0 -46 -8 -63 -22z m-1196 -543 c7 -8 15 -34
17 -58 4 -36 -4 -66 -47 -173 -112 -281 -235 -454 -321 -454 -15 0 -49 80 -49
115 -1 122 159 435 278 543 50 45 98 56 122 27z"/>
<path d="M5207 3849 c-23 -14 -66 -100 -139 -283 -108 -269 -137 -378 -141
-525 -2 -60 1 -73 20 -92 21 -21 23 -21 47 -6 17 11 27 30 31 54 15 94 59 201
234 575 99 212 103 229 54 268 -28 22 -77 26 -106 9z"/>
<path d="M3336 3779 c-39 -46 -33 -121 13 -156 9 -7 35 -13 59 -13 35 0 49 6
73 29 66 66 20 171 -74 171 -38 0 -49 -5 -71 -31z"/>
<path d="M1589 3702 c-98 -62 -178 -186 -272 -417 -72 -179 -114 -318 -156
-525 -21 -102 -14 -133 31 -138 32 -4 32 -3 113 193 83 202 221 497 277 592
27 46 71 110 98 142 57 68 65 110 29 155 -27 34 -63 34 -120 -2z"/>
<path d="M4774 2765 c-40 -37 -45 -101 -10 -142 75 -89 210 -13 177 99 -21 68
-114 92 -167 43z"/>
<path d="M0 101 l0 -101 95 0 c95 0 121 11 70 30 -14 5 -24 14 -23 19 2 6 -19
30 -46 55 -27 25 -54 55 -60 67 -6 13 -17 24 -23 27 -10 3 -13 -21 -13 -97z"/>
<path d="M6100 174 c-6 -14 -10 -30 -10 -35 0 -5 -3 -8 -7 -8 -21 3 -31 -3
-36 -22 -3 -11 -15 -23 -26 -26 -12 -3 -21 -9 -21 -14 0 -5 0 -12 0 -16 0 -5
-15 -13 -32 -19 -18 -6 -34 -16 -36 -22 -3 -9 24 -12 97 -12 l101 0 0 100 c0
101 -10 126 -30 74z"/>
</g>
</svg>
